<svg xmlns="http://www.w3.org/2000/svg" version="1.1" xmlns:xlink="http://www.w3.org/1999/xlink" xmlns:svgjs="http://svgjs.dev/svgjs" width="1440" height="560" preserveAspectRatio="none" viewBox="0 0 1440 560"><g mask="url(&quot;#SvgjsMask1019&quot;)" fill="none"><rect width="1440" height="560" x="0" y="0" fill="rgba(30, 52, 106, 1)"></rect><path d="M997 553L725 825" stroke-width="10" stroke="url(&quot;#SvgjsLinearGradient1020&quot;)" stroke-linecap="round" class="BottomLeft"></path><path d="M841 527L599 769" stroke-width="10" stroke="url(&quot;#SvgjsLinearGradient1021&quot;)" stroke-linecap="round" class="TopRight"></path><path d="M989 153L1202 -60" stroke-width="10" stroke="url(&quot;#SvgjsLinearGradient1020&quot;)" stroke-linecap="round" class="BottomLeft"></path><path d="M1308 80L1010 378" stroke-width="8" stroke="url(&quot;#SvgjsLinearGradient1020&quot;)" stroke-linecap="round" class="BottomLeft"></path><path d="M765 264L974 55" stroke-width="8" stroke="url(&quot;#SvgjsLinearGradient1021&quot;)" stroke-linecap="round" class="TopRight"></path><path d="M623 490L221 892" stroke-width="10" stroke="url(&quot;#SvgjsLinearGradient1020&quot;)" stroke-linecap="round" class="BottomLeft"></path><path d="M663 451L484 630" stroke-width="6" stroke="url(&quot;#SvgjsLinearGradient1020&quot;)" stroke-linecap="round" class="BottomLeft"></path><path d="M509 42L881 -330" stroke-width="8" stroke="url(&quot;#SvgjsLinearGradient1020&quot;)" stroke-linecap="round" class="BottomLeft"></path><path d="M294 256L701 -151" stroke-width="8" stroke="url(&quot;#SvgjsLinearGradient1020&quot;)" stroke-linecap="round" class="BottomLeft"></path><path d="M1364 28L1008 384" stroke-width="6" stroke="url(&quot;#SvgjsLinearGradient1021&quot;)" stroke-linecap="round" class="TopRight"></path><path d="M402 357L156 603" stroke-width="10" stroke="url(&quot;#SvgjsLinearGradient1021&quot;)" stroke-linecap="round" class="TopRight"></path><path d="M839 349L1258 -70" stroke-width="10" stroke="url(&quot;#SvgjsLinearGradient1021&quot;)" stroke-linecap="round" class="TopRight"></path><path d="M1300 181L940 541" stroke-width="10" stroke="url(&quot;#SvgjsLinearGradient1021&quot;)" stroke-linecap="round" class="TopRight"></path><path d="M1084 456L900 640" stroke-width="8" stroke="url(&quot;#SvgjsLinearGradient1020&quot;)" stroke-linecap="round" class="BottomLeft"></path><path d="M395 188L615 -32" stroke-width="6" stroke="url(&quot;#SvgjsLinearGradient1020&quot;)" stroke-linecap="round" class="BottomLeft"></path><path d="M365 405L49 721" stroke-width="8" stroke="url(&quot;#SvgjsLinearGradient1021&quot;)" stroke-linecap="round" class="TopRight"></path><path d="M151 498L569 80" stroke-width="10" stroke="url(&quot;#SvgjsLinearGradient1020&quot;)" stroke-linecap="round" class="BottomLeft"></path><path d="M804 278L1075 7" stroke-width="8" stroke="url(&quot;#SvgjsLinearGradient1020&quot;)" stroke-linecap="round" class="BottomLeft"></path><path d="M705 489L970 224" stroke-width="8" stroke="url(&quot;#SvgjsLinearGradient1021&quot;)" stroke-linecap="round" class="TopRight"></path><path d="M415 508L831 92" stroke-width="10" stroke="url(&quot;#SvgjsLinearGradient1021&quot;)" stroke-linecap="round" class="TopRight"></path><path d="M1291 377L990 678" stroke-width="10" stroke="url(&quot;#SvgjsLinearGradient1021&quot;)" stroke-linecap="round" class="TopRight"></path><path d="M555 345L901 -1" stroke-width="8" stroke="url(&quot;#SvgjsLinearGradient1021&quot;)" stroke-linecap="round" class="TopRight"></path><path d="M1153 192L1550 -205" stroke-width="8" stroke="url(&quot;#SvgjsLinearGradient1020&quot;)" stroke-linecap="round" class="BottomLeft"></path><path d="M132 308L-227 667" stroke-width="8" stroke="url(&quot;#SvgjsLinearGradient1021&quot;)" stroke-linecap="round" class="TopRight"></path><path d="M1053 455L856 652" stroke-width="8" stroke="url(&quot;#SvgjsLinearGradient1021&quot;)" stroke-linecap="round" class="TopRight"></path><path d="M1129 219L779 569" stroke-width="8" stroke="url(&quot;#SvgjsLinearGradient1021&quot;)" stroke-linecap="round" class="TopRight"></path><path d="M617 539L405 751" stroke-width="8" stroke="url(&quot;#SvgjsLinearGradient1020&quot;)" stroke-linecap="round" class="BottomLeft"></path><path d="M458 137L824 -229" stroke-width="8" stroke="url(&quot;#SvgjsLinearGradient1021&quot;)" stroke-linecap="round" class="TopRight"></path><path d="M546 137L160 523" stroke-width="10" stroke="url(&quot;#SvgjsLinearGradient1020&quot;)" stroke-linecap="round" class="BottomLeft"></path><path d="M1177 373L1491 59" stroke-width="10" stroke="url(&quot;#SvgjsLinearGradient1020&quot;)" stroke-linecap="round" class="BottomLeft"></path><path d="M752 221L904 69" stroke-width="8" stroke="url(&quot;#SvgjsLinearGradient1021&quot;)" stroke-linecap="round" class="TopRight"></path><path d="M21 156L-348 525" stroke-width="10" stroke="url(&quot;#SvgjsLinearGradient1021&quot;)" stroke-linecap="round" class="TopRight"></path><path d="M2 140L393 -251" stroke-width="6" stroke="url(&quot;#SvgjsLinearGradient1021&quot;)" stroke-linecap="round" class="TopRight"></path><path d="M511 205L234 482" stroke-width="10" stroke="url(&quot;#SvgjsLinearGradient1020&quot;)" stroke-linecap="round" class="BottomLeft"></path><path d="M1394 521L1098 817" stroke-width="10" stroke="url(&quot;#SvgjsLinearGradient1020&quot;)" stroke-linecap="round" class="BottomLeft"></path><path d="M667 58L462 263" stroke-width="8" stroke="url(&quot;#SvgjsLinearGradient1021&quot;)" stroke-linecap="round" class="TopRight"></path><path d="M825 413L570 668" stroke-width="6" stroke="url(&quot;#SvgjsLinearGradient1021&quot;)" stroke-linecap="round" class="TopRight"></path><path d="M854 460L1148 166" stroke-width="8" stroke="url(&quot;#SvgjsLinearGradient1020&quot;)" stroke-linecap="round" class="BottomLeft"></path><path d="M1045 105L1213 -63" stroke-width="6" stroke="url(&quot;#SvgjsLinearGradient1020&quot;)" stroke-linecap="round" class="BottomLeft"></path></g><defs><mask id="SvgjsMask1019"><rect width="1440" height="560" fill="#ffffff"></rect></mask><linearGradient x1="100%" y1="0%" x2="0%" y2="100%" id="SvgjsLinearGradient1020"><stop stop-color="rgba(23, 37, 84, 0)" offset="0"></stop><stop stop-color="rgba(23, 37, 84, 1)" offset="1"></stop></linearGradient><linearGradient x1="0%" y1="100%" x2="100%" y2="0%" id="SvgjsLinearGradient1021"><stop stop-color="rgba(23, 37, 84, 0)" offset="0"></stop><stop stop-color="rgba(23, 37, 84, 1)" offset="1"></stop></linearGradient></defs></svg>